<?xml version="1.0" encoding="iso-8859-1"?>
<!-- Uploaded to: SVG Repo, www.svgrepo.com, Generator: SVG Repo Mixer Tools -->
<!DOCTYPE svg PUBLIC "-//W3C//DTD SVG 1.1//EN" "http://www.w3.org/Graphics/SVG/1.1/DTD/svg11.dtd">
<svg fill="#000000" version="1.1" id="Capa_1" xmlns="http://www.w3.org/2000/svg" xmlns:xlink="http://www.w3.org/1999/xlink" 
	 width="800px" height="800px" viewBox="0 0 46.032 46.033"
	 xml:space="preserve">
<g>
	<g>
		<path d="M8.532,18.531l8.955-8.999c-0.244-0.736-0.798-1.348-1.54-1.653c-1.01-0.418-2.177-0.185-2.95,0.591L1.047,20.479
			c-1.396,1.402-1.396,3.67,0,5.073l11.949,12.01c0.771,0.775,1.941,1.01,2.951,0.592c0.742-0.307,1.295-0.918,1.54-1.652l-8.956-9
			C6.07,25.027,6.071,21.003,8.532,18.531z"/>
		<path d="M45.973,31.64c-1.396-5.957-5.771-14.256-18.906-16.01v-5.252c0-1.095-0.664-2.082-1.676-2.5
			c-0.334-0.138-0.686-0.205-1.033-0.205c-0.705,0-1.398,0.276-1.917,0.796L10.49,20.479c-1.396,1.402-1.396,3.669-0.001,5.073
			l11.95,12.009c0.517,0.521,1.212,0.797,1.92,0.797c0.347,0,0.697-0.066,1.031-0.205c1.012-0.418,1.676-1.404,1.676-2.5V30.57
			c4.494,0.004,10.963,0.596,15.564,3.463c0.361,0.225,0.77,0.336,1.176,0.336c0.457,0,0.91-0.139,1.297-0.416
			C45.836,33.429,46.18,32.515,45.973,31.64z"/>
	</g>
</g>
</svg>